#!OML:ASF F:\VICON\USERDATA\INSTALL\rory3\rory3.ASF
:FULLY-SPECIFIED
:DEGREES
2661
root -9.14965 17.9938 15.6582 -333.421 266.583 -387.508
lowerback 11.3465 -2.1678 -4.70762
upperback 1.86589 -3.40909 2.63808
thorax -3.96102 -1.65566 5.92158
lowerneck 7.52159 -19.1639 -16.4987
upperneck 28.9424 -36.1298 14.5251
head 14.8522 -17.717 2.84004
rclavicle -4.8901e-014 1.11319e-014
rhumerus -27.0569 -3.77608 -84.6309
rradius 37.1352
rwrist 5.13714
rhand -15.8643 8.36148
rfingers 7.12502
rthumb 10.331 -21.3648
lclavicle -4.8901e-014 1.11319e-014
lhumerus -41.6323 8.8498 78.0229
lradius 37.2488
lwrist 1.93524
lhand -18.812 27.266
lfingers 7.12502
lthumb 7.48666 57.1135
rfemur -11.7222 -1.02621 18.0173
rtibia 60.0838
rfoot -9.87178 2.30321
rtoes -0.189086
lfemur -9.07655 0.271789 -24.1895
ltibia 10.8375
lfoot 2.71335 -7.95201
ltoes 4.63323
2662
root -9.09584 17.9802 15.6545 -334.124 266.51 -386.929
lowerback 11.287 -2.18548 -4.65225
upperback 1.87078 -3.42308 2.66178
thorax -3.92293 -1.665 5.9131
lowerneck 7.53145 -19.2545 -16.3933
upperneck 28.7843 -36.1857 14.4772
head 14.7492 -17.7396 2.80946
rclavicle 2.82274e-014 -2.38542e-015
rhumerus -27.1891 -4.00787 -84.4654
rradius 36.8687
rwrist 5.17292
rhand -15.6498 8.38677
rfingers 7.12502
rthumb 10.538 -21.3291
lclavicle 2.82274e-014 -2.38542e-015
lhumerus -41.6096 9.17001 77.5961
lradius 37.4667
lwrist 2.41158
lhand -19.0212 27.8705
lfingers 7.12502
lthumb 7.28472 57.7251
rfemur -10.6347 -0.920048 18.0096
rtibia 59.3333
rfoot -9.68979 2.38498
rtoes -4.38951
lfemur -9.46677 0.372224 -24.1511
ltibia 11.501
lfoot 2.5802 -7.9968
ltoes 4.91912
2663
root -9.04184 17.9714 15.6491 -335.102 266.569 -386.115
lowerback 11.3082 -2.21583 -4.45938
upperback 1.84338 -3.44056 2.67222
thorax -3.97204 -1.67358 5.81915
lowerneck 7.57031 -19.3328 -16.279
upperneck 28.6762 -36.2762 14.465
head 14.6813 -17.7779 2.78372
rclavicle 2.95195e-014 1.59028e-015
rhumerus -27.3747 -4.23415 -84.3084
rradius 36.5587
rwrist 5.11466
rhand -15.7406 8.27741
rfingers 7.12502
rthumb 10.4504 -21.4429
lclavicle 2.95195e-014 1.59028e-015
lhumerus -41.6198 9.71779 76.9137
lradius 37.4614
lwrist 2.04748
lhand -18.1665 27.1193
lfingers 7.12502
lthumb 8.10963 56.9437
rfemur -9.50471 -0.696654 18.0684
rtibia 58.4696
rfoot -9.41657 2.64917
rtoes -5.85836
lfemur -9.79715 0.29569 -24.0229
ltibia 12.1051
lfoot 2.47628 -8.03129
ltoes 5.05741
2664
root -8.98687 17.9646 15.6444 -337.453 266.553 -383.859
lowerback 11.314 -2.2179 -4.17325
upperback 1.77659 -3.4079 2.66579
thorax -4.06706 -1.65557 5.64836
lowerneck 7.53491 -19.4112 -16.1532
upperneck 28.6995 -36.3842 14.3776
head 14.6699 -17.8184 2.7138
rclavicle -2.34566e-014 -3.18055e-015
rhumerus -27.6617 -4.61052 -84.1953
rradius 36.2761
rwrist 5.3894
rhand -15.714 8.20647
rfingers 7.12502
rthumb 10.4761 -21.5125
lclavicle -2.34566e-014 -3.18055e-015
lhumerus -41.626 9.34491 76.9674
lradius 37.7392
lwrist 4.60452
lhand -21.2625 27.6945
lfingers 7.12502
lthumb 5.12093 57.6126
rfemur -8.5013 -0.351675 18.1719
rtibia 57.524
rfoot -8.91612 3.36321
rtoes -5.36006
lfemur -10.1068 0.247202 -23.848
ltibia 12.5112
lfoot 2.41809 -8.07989
ltoes 4.95483
2665
root -8.92884 17.9557 15.6414 -337.987 266.357 -383.382
lowerback 11.2291 -2.17293 -4.10986
upperback 1.74618 -3.33698 2.65453
thorax -4.0653 -1.62009 5.58694
lowerneck 7.54907 -19.4216 -16.2023
upperneck 28.6345 -36.482 14.5406
head 14.7138 -17.8584 2.74757
rclavicle 2.38542e-015 -3.97569e-015
rhumerus -27.8665 -4.75188 -84.0899
rradius 35.9955
rwrist 5.55029
rhand -15.6119 8.07816
rfingers 7.12502
rthumb 10.5745 -21.6358
lclavicle 2.38542e-015 -3.97569e-015
lhumerus -41.599 10.0048 76.2023
lradius 37.7879
lwrist 3.45478
lhand -19.6328 27.6551
lfingers 7.12502
lthumb 6.69427 57.5293
rfemur -7.59916 0.187988 18.0915
rtibia 56.5179
rfoot -8.12577 4.34634
rtoes -3.32423
lfemur -10.4594 0.168301 -23.8498
ltibia 12.9291
lfoot 2.38818 -7.95985
ltoes 4.5433
